<mxfile host="app.diagrams.net" modified="2024-03-08T20:53:14.932Z" agent="Mozilla/5.0 (Windows NT 10.0; Win64; x64) AppleWebKit/537.36 (KHTML, like Gecko) Chrome/121.0.0.0 Safari/537.36" etag="4Oy3cHjb6LO0FCcWIyTN" version="24.0.2" type="github">
  <diagram name="Page-1" id="pSpALJC5yVr0XKBFLPEH">
    <mxGraphModel dx="578" dy="837" grid="1" gridSize="10" guides="1" tooltips="1" connect="1" arrows="1" fold="1" page="1" pageScale="1" pageWidth="850" pageHeight="1100" math="0" shadow="0">
      <root>
        <mxCell id="0" />
        <mxCell id="1" parent="0" />
        <mxCell id="hucy-WEynXL1lDFWH9Ns-1" value="LSM Query Interface" style="swimlane;whiteSpace=wrap;html=1;" parent="1" vertex="1">
          <mxGeometry x="260" y="40" width="160" height="400" as="geometry" />
        </mxCell>
        <mxCell id="hucy-WEynXL1lDFWH9Ns-4" value="Parse LSM Query" style="ellipse;whiteSpace=wrap;html=1;" parent="hucy-WEynXL1lDFWH9Ns-1" vertex="1">
          <mxGeometry x="20" y="40" width="120" height="80" as="geometry" />
        </mxCell>
        <mxCell id="hucy-WEynXL1lDFWH9Ns-5" value="Extract Room Checks" style="ellipse;whiteSpace=wrap;html=1;" parent="hucy-WEynXL1lDFWH9Ns-1" vertex="1">
          <mxGeometry x="20" y="160" width="120" height="80" as="geometry" />
        </mxCell>
        <mxCell id="hucy-WEynXL1lDFWH9Ns-8" value="Filter Data (Javascript/Python)" style="ellipse;whiteSpace=wrap;html=1;" parent="hucy-WEynXL1lDFWH9Ns-1" vertex="1">
          <mxGeometry x="20" y="280" width="120" height="80" as="geometry" />
        </mxCell>
        <mxCell id="hucy-WEynXL1lDFWH9Ns-13" value="Use" style="endArrow=open;endSize=12;dashed=1;html=1;rounded=0;" parent="hucy-WEynXL1lDFWH9Ns-1" source="hucy-WEynXL1lDFWH9Ns-5" target="hucy-WEynXL1lDFWH9Ns-4" edge="1">
          <mxGeometry width="160" relative="1" as="geometry">
            <mxPoint x="80" y="340" as="sourcePoint" />
            <mxPoint x="240" y="340" as="targetPoint" />
          </mxGeometry>
        </mxCell>
        <mxCell id="hucy-WEynXL1lDFWH9Ns-14" value="Extends" style="endArrow=block;endSize=16;endFill=0;html=1;rounded=0;" parent="hucy-WEynXL1lDFWH9Ns-1" source="hucy-WEynXL1lDFWH9Ns-8" target="hucy-WEynXL1lDFWH9Ns-5" edge="1">
          <mxGeometry width="160" relative="1" as="geometry">
            <mxPoint x="80" y="340" as="sourcePoint" />
            <mxPoint x="240" y="340" as="targetPoint" />
          </mxGeometry>
        </mxCell>
        <mxCell id="hucy-WEynXL1lDFWH9Ns-2" value="CheckerBoard" style="shape=umlActor;verticalLabelPosition=bottom;verticalAlign=top;html=1;outlineConnect=0;" parent="1" vertex="1">
          <mxGeometry x="40" y="160" width="40" height="70" as="geometry" />
        </mxCell>
        <mxCell id="hucy-WEynXL1lDFWH9Ns-3" value="Python HTML Query" style="ellipse;whiteSpace=wrap;html=1;" parent="1" vertex="1">
          <mxGeometry x="120" y="80" width="120" height="80" as="geometry" />
        </mxCell>
        <mxCell id="hucy-WEynXL1lDFWH9Ns-6" value="" style="endArrow=none;html=1;rounded=0;" parent="1" source="hucy-WEynXL1lDFWH9Ns-2" target="hucy-WEynXL1lDFWH9Ns-3" edge="1">
          <mxGeometry width="50" height="50" relative="1" as="geometry">
            <mxPoint x="400" y="310" as="sourcePoint" />
            <mxPoint x="450" y="260" as="targetPoint" />
          </mxGeometry>
        </mxCell>
        <mxCell id="hucy-WEynXL1lDFWH9Ns-7" value="" style="endArrow=none;html=1;rounded=0;" parent="1" source="hucy-WEynXL1lDFWH9Ns-3" target="hucy-WEynXL1lDFWH9Ns-4" edge="1">
          <mxGeometry width="50" height="50" relative="1" as="geometry">
            <mxPoint x="320" y="310" as="sourcePoint" />
            <mxPoint x="370" y="260" as="targetPoint" />
          </mxGeometry>
        </mxCell>
        <mxCell id="hucy-WEynXL1lDFWH9Ns-9" value="Export Extracted, Filtered HTML Data to dataframe" style="ellipse;whiteSpace=wrap;html=1;" parent="1" vertex="1">
          <mxGeometry x="480" y="305" width="180" height="110" as="geometry" />
        </mxCell>
        <mxCell id="hucy-WEynXL1lDFWH9Ns-10" value="Import datarame to CheckerBoard" style="ellipse;whiteSpace=wrap;html=1;" parent="1" vertex="1">
          <mxGeometry x="480" y="80" width="180" height="110" as="geometry" />
        </mxCell>
        <mxCell id="hucy-WEynXL1lDFWH9Ns-15" value="Use" style="endArrow=open;endSize=12;dashed=1;html=1;rounded=0;" parent="1" source="hucy-WEynXL1lDFWH9Ns-9" target="hucy-WEynXL1lDFWH9Ns-8" edge="1">
          <mxGeometry width="160" relative="1" as="geometry">
            <mxPoint x="410" y="520" as="sourcePoint" />
            <mxPoint x="500" y="380" as="targetPoint" />
          </mxGeometry>
        </mxCell>
        <mxCell id="hucy-WEynXL1lDFWH9Ns-16" value="Use" style="endArrow=open;endSize=12;dashed=1;html=1;rounded=0;" parent="1" source="hucy-WEynXL1lDFWH9Ns-10" target="hucy-WEynXL1lDFWH9Ns-9" edge="1">
          <mxGeometry width="160" relative="1" as="geometry">
            <mxPoint x="340" y="380" as="sourcePoint" />
            <mxPoint x="500" y="380" as="targetPoint" />
          </mxGeometry>
        </mxCell>
      </root>
    </mxGraphModel>
  </diagram>
</mxfile>
